<svg width="213" height="36" viewBox="0 0 213 36" fill="none" xmlns="http://www.w3.org/2000/svg">
<path d="M128.566 7.33796H125.866L125.239 8.96862H124.172L126.557 2.885H127.813L130.198 8.96862H129.131L128.566 7.33796V7.33796ZM128.189 6.39719L127.185 3.82577L126.18 6.39719H128.189ZM134.843 3.82577H132.081V8.96862H131.077V2.885H134.843V3.82577ZM136.79 3.82577V5.39371H139.552V6.33448H136.79V8.09057H139.803V9.03134H135.785V2.885H139.803V3.82577H136.79ZM145.704 2.885V8.96862H144.699V6.27176H141.561V8.96862H140.556V2.885H141.561V5.39371H144.699V2.885H145.704ZM151.228 3.82577H149.345V8.96862H148.34V3.82577H146.457V2.885H151.165L151.228 3.82577ZM152.295 5.89545C152.233 4.20207 153.614 2.82228 155.309 2.75956H155.434C156.752 2.69685 158.008 3.57489 158.385 4.89197H157.317C157.004 4.13935 156.25 3.70033 155.434 3.70033C154.179 3.76305 153.237 4.82925 153.362 6.02089C153.425 7.14981 154.304 8.09057 155.434 8.09057C156.25 8.09057 157.004 7.65155 157.317 6.89894H158.385C158.008 8.21601 156.815 9.03134 155.434 9.03134C153.739 9.09406 152.358 7.71427 152.295 6.02089V5.89545ZM163.972 3.82577H162.088V8.96862H161.084V3.82577H159.201V2.885H163.909L163.972 3.82577V3.82577ZM169.935 7.21253C169.935 8.27873 169.182 8.96862 167.927 8.96862H165.29V2.885H167.864C169.057 2.885 169.747 3.44946 169.747 4.45294C169.81 5.0174 169.433 5.51915 168.931 5.7073C169.559 5.89545 169.998 6.52263 169.935 7.21253V7.21253ZM167.738 3.82577H166.232V5.39371H167.738C168.429 5.39371 168.743 5.08012 168.743 4.57838C168.743 4.07664 168.429 3.82577 167.738 3.82577ZM168.931 7.14981C168.931 6.58535 168.68 6.27176 167.864 6.27176H166.232V8.02786H167.864C168.68 8.02786 168.931 7.71427 168.931 7.14981V7.14981ZM176.904 5.89545C176.904 7.65155 175.523 9.09406 173.765 9.09406C172.007 9.09406 170.563 7.71427 170.563 5.95817C170.563 4.20207 171.944 2.75956 173.702 2.75956H173.765C175.46 2.75956 176.904 4.13935 176.904 5.89545ZM171.568 5.89545C171.568 7.08709 172.572 8.02786 173.765 8.02786C174.958 8.02786 175.899 7.02437 175.899 5.83273C175.899 4.6411 174.895 3.70033 173.702 3.70033C172.509 3.70033 171.505 4.6411 171.505 5.83273C171.505 5.83273 171.505 5.89545 171.568 5.89545ZM129.884 20.8223H128.88V15.6794H125.741V20.8223H124.736V14.7387H129.884V20.8223ZM135.785 16.6829C135.848 17.7491 134.969 18.6899 133.902 18.6899H132.144V20.7596H131.14V14.6759H133.651C134.718 14.5505 135.66 15.3658 135.785 16.432V16.6829ZM134.781 16.6829C134.781 16.1184 134.404 15.6167 133.839 15.6167H132.207V17.7491H133.714C134.278 17.8118 134.781 17.3728 134.843 16.8083C134.781 16.8083 134.781 16.7456 134.781 16.6829V16.6829ZM142.816 17.7491C142.816 19.5052 141.435 20.9477 139.677 20.9477C137.92 20.9477 136.476 19.5679 136.476 17.8118C136.476 16.0557 137.857 14.6132 139.614 14.6132H139.677C141.372 14.5505 142.816 15.993 142.816 17.7491C142.816 17.6864 142.816 17.7491 142.816 17.7491V17.7491ZM137.48 17.7491C137.48 18.9407 138.485 19.8815 139.677 19.8815C140.87 19.8815 141.812 18.878 141.812 17.6864C141.812 16.4948 140.807 15.554 139.614 15.554C138.422 15.4913 137.417 16.432 137.417 17.6237C137.417 17.6237 137.417 17.6864 137.48 17.7491ZM149.659 14.6759V20.7596H148.654V15.993L146.771 18.8153H146.645L144.762 15.993V20.7596H143.758V14.6759H144.95L146.708 17.3101L148.466 14.6759H149.659V14.6759ZM155.622 18.9407C155.622 20.0697 154.869 20.8223 153.551 20.8223H151.04V14.6759H152.044V17.0592H153.614C154.932 17.0592 155.622 17.7491 155.622 18.9407V18.9407ZM154.618 18.9407C154.618 18.3763 154.304 18 153.551 18H152.044V19.8815H153.551C154.304 19.8815 154.618 19.5052 154.618 18.9407ZM157.443 14.6759V20.7596H156.439V14.6132L157.443 14.6759V14.6759ZM166.483 14.6759V20.7596H159.012V14.6759H160.017V19.8188H162.277V14.6759H163.281V19.8188H165.541V14.6759H166.483V14.6759ZM172.949 14.6759V20.7596H171.944V15.6167H169.935L169.37 18.9407C169.119 20.3833 168.617 20.885 167.801 20.885C167.613 20.885 167.424 20.885 167.236 20.8223V19.9442H167.55C167.989 19.9442 168.178 19.6934 168.366 18.8153L169.057 14.6759H172.949V14.6759ZM175.083 15.6167V17.1847H177.845V18.1254H175.083V19.8188H178.096V20.7596H174.079V14.6759H178.096V15.6167H175.083V15.6167ZM183.997 14.6759V20.7596H182.993V18.0627H179.854V20.7596H178.85V14.6759H179.854V17.1847H182.993V14.6759H183.997V14.6759ZM190.401 14.6759V20.7596H189.396V18.0627H186.257V20.7596H185.253V14.6759H186.257V17.1847H189.396V14.6759H190.401V14.6759ZM197.683 17.7491C197.683 19.5052 196.301 20.9477 194.544 20.9477C192.786 20.9477 191.342 19.5679 191.342 17.8118C191.342 16.0557 192.723 14.6132 194.481 14.6132H194.544C196.239 14.5505 197.683 15.993 197.683 17.7491C197.683 17.7491 197.683 17.6864 197.683 17.7491ZM192.347 17.7491C192.347 18.9407 193.351 19.8815 194.544 19.8815C195.737 19.8815 196.678 18.878 196.678 17.6864C196.678 16.4948 195.674 15.554 194.481 15.554C193.288 15.554 192.347 16.4948 192.284 17.6864C192.347 17.6864 192.347 17.6864 192.347 17.7491ZM202.579 15.6167H199.754V20.7596H198.75V14.6759H202.516L202.579 15.6167V15.6167ZM209.673 17.7491C209.673 19.5052 208.292 20.9477 206.534 20.9477C204.776 20.9477 203.332 19.5679 203.332 17.8118C203.332 16.0557 204.714 14.6132 206.471 14.6132H206.534C208.229 14.5505 209.61 15.993 209.673 17.7491C209.673 17.7491 209.61 17.6864 209.673 17.7491ZM204.274 17.7491C204.274 18.9407 205.279 19.8815 206.471 19.8815C207.664 19.8815 208.606 18.878 208.606 17.6864C208.606 16.4948 207.601 15.554 206.408 15.554C205.216 15.554 204.211 16.4948 204.211 17.6864C204.274 17.6864 204.274 17.6864 204.274 17.7491ZM129.319 29.0383C129.382 30.1045 128.503 31.0453 127.436 31.108H125.678V33.1777H124.674V27.0941H127.185C128.252 26.9686 129.194 27.7212 129.319 28.7874V29.0383V29.0383ZM128.315 29.0383C128.315 28.4738 127.875 27.9721 127.31 27.9721H125.615V30.1045H127.122C127.687 30.1672 128.252 29.7909 128.315 29.2265V29.0383V29.0383ZM134.153 31.4843H131.516L130.889 33.115H129.821L132.207 27.0313H133.462L135.848 33.115H134.781L134.153 31.4843V31.4843ZM133.776 30.6063L132.772 28.0348L131.83 30.6063H133.776ZM141.058 31.4216C141.058 32.5505 140.179 33.2404 138.736 33.2404C137.292 33.2404 136.35 32.6132 136.225 31.2962H137.229C137.355 31.986 137.92 32.2996 138.736 32.2996C139.552 32.2996 140.054 31.9233 140.054 31.2962C140.054 30.669 139.74 30.4181 138.861 30.4181H137.92V29.5401H138.673C139.426 29.5401 139.866 29.2892 139.866 28.7874C139.866 28.2857 139.426 27.8467 138.673 27.8467C137.92 27.8467 137.543 28.0975 137.355 28.7247H136.35C136.538 27.4704 137.48 26.9059 138.673 26.9059C139.866 26.9059 140.87 27.6585 140.87 28.662C140.87 29.2265 140.556 29.7282 140.054 29.9164C140.682 30.1672 141.058 30.7317 141.058 31.4216V31.4216ZM146.834 31.4216C146.834 32.4878 146.08 33.1777 144.825 33.1777H142.188V27.0941H144.762C145.955 27.0941 146.645 27.6585 146.645 28.662C146.708 29.2265 146.332 29.7282 145.829 29.9164C146.52 30.1045 146.959 30.7317 146.834 31.4216V31.4216ZM144.637 27.9721H143.13V29.5401H144.637C145.327 29.5401 145.641 29.2265 145.641 28.7247C145.641 28.223 145.39 27.9721 144.637 27.9721ZM145.829 31.3589C145.829 30.7944 145.578 30.4808 144.762 30.4808H143.13V32.2369H144.762C145.578 32.1742 145.829 31.8606 145.829 31.3589V31.3589ZM152.798 27.0313V33.115H151.793V30.5435L151.856 28.4111L148.78 33.115H147.587V27.0313H148.591V29.6028L148.529 31.7352L151.605 27.0313H152.798ZM158.385 27.9721H156.501V33.115H155.497V27.9721H153.614V27.0313H158.322L158.385 27.9721ZM164.788 27.0313V33.115H163.783V30.5435L163.846 28.4111L160.77 33.115H159.577V27.0313H160.582V29.6028L160.519 31.7352L163.595 27.0313H164.788ZM170.5 27.0313V33.115H169.496V30.9198H168.492L166.797 33.115H165.604L167.362 30.8571C166.483 30.669 165.855 29.8536 165.855 28.9756C165.855 27.784 166.608 27.0313 167.927 27.0313H170.5V27.0313ZM169.496 30.0418V27.9721H168.052C167.236 27.9721 166.859 28.4111 166.859 29.0383C166.859 29.6655 167.236 30.0418 168.052 30.0418H169.496V30.0418ZM179.791 27.0313V33.115H178.787V28.3484L176.904 31.1707H176.841L174.958 28.3484V33.115H173.953V27.0313H175.146L176.904 29.6655L178.661 27.0313H179.791V27.0313ZM187.262 30.1045C187.262 31.8606 185.881 33.3031 184.123 33.3031C182.365 33.3031 180.921 31.9233 180.921 30.1672C180.921 28.4111 182.302 26.9686 184.06 26.9686H184.123C185.818 26.9059 187.262 28.3484 187.262 30.1045C187.262 30.1045 187.262 30.0418 187.262 30.1045ZM181.926 30.1045C181.926 31.2961 182.93 32.2369 184.123 32.2369C185.316 32.2369 186.257 31.2334 186.257 30.0418C186.257 28.8502 185.253 27.9094 184.06 27.9094C182.867 27.9094 181.926 28.8502 181.863 29.9791C181.926 30.0418 181.926 30.0418 181.926 30.1045ZM188.078 30.1045C188.015 28.4111 189.396 27.0313 191.091 26.9686H191.217C192.535 26.9059 193.79 27.784 194.167 29.101H193.1C192.786 28.3484 192.033 27.9094 191.217 27.9094C190.024 27.9094 189.019 28.9129 189.019 30.1045C189.019 31.2961 190.024 32.2996 191.217 32.2996C192.033 32.2996 192.786 31.8606 193.1 31.108H194.167C193.79 32.4251 192.598 33.2404 191.217 33.2404C189.522 33.3031 188.141 31.9233 188.078 30.2299V30.1045V30.1045ZM199.064 33.115L196.49 30.1672V33.115H195.485V27.0313H196.49V29.7909L199.001 27.0313H200.256L197.62 29.9791L200.382 33.115H199.064V33.115ZM205.718 31.4216C205.718 32.4878 204.965 33.115 203.709 33.115H201.072V27.0313H203.709C204.902 27.0313 205.592 27.5958 205.592 28.5993C205.655 29.1637 205.279 29.6655 204.776 29.8536C205.404 30.1045 205.844 30.7317 205.718 31.4216V31.4216ZM203.521 27.9721H202.014V29.5401H203.521C204.211 29.5401 204.525 29.2265 204.525 28.7247C204.525 28.223 204.274 27.9721 203.521 27.9721ZM204.714 31.3589C204.714 30.7944 204.462 30.4808 203.646 30.4808H202.014V32.2369H203.646C204.462 32.1742 204.714 31.8606 204.714 31.3589ZM211.242 31.2334C211.242 32.3624 210.489 33.115 209.171 33.115H206.66V27.0313H207.664V29.4146H209.233C210.552 29.4146 211.242 30.1045 211.242 31.2334V31.2334ZM210.238 31.2334C210.238 30.669 209.924 30.2927 209.108 30.2927H207.601V32.1742H209.108C209.861 32.1742 210.238 31.8606 210.238 31.2334ZM213 27.0313V33.115H211.996V27.0313H213Z" fill="#E0E0E0"/>
<path fill-rule="evenodd" clip-rule="evenodd" d="M40.3652 2.82233V33.1777H48.9655V9.97215H60.7675V33.1777H69.4306V2.82233H40.3652ZM35.6569 2.82233H17.8285L0 33.1777H9.47922L12.9947 27.1568H27.1194V33.1777H35.7197L35.6569 2.82233V2.82233ZM17.2007 20.0697L27.1194 3.13592V20.0697H17.2007ZM93.0345 2.82233H74.7038V33.1777H83.2414V27.1568H93.0345C99.7516 27.1568 105.15 21.7004 105.15 15.0523C105.15 8.27877 99.7516 2.82233 93.0345 2.82233C93.0973 2.82233 93.0973 2.82233 93.0345 2.82233V2.82233ZM96.6127 14.9896C96.6127 17.7492 94.4156 20.007 91.6534 20.007H83.2414V9.90943H91.5906C94.3528 9.90943 96.6127 12.1673 96.6127 14.9896Z" fill="#3272D9"/>
<path d="M114.504 0H115.383V36H114.504V0Z" fill="#E0E0E0"/>
</svg>
